<svg xmlns="http://www.w3.org/2000/svg" xmlns:xlink="http://www.w3.org/1999/xlink" width="500" zoomAndPan="magnify" viewBox="0 0 375 374.999991" height="500" preserveAspectRatio="xMidYMid meet" version="1.0"><defs><g/><clipPath id="2ed8ddad60"><rect x="0" width="277" y="0" height="347"/></clipPath><clipPath id="93173b8e79"><path d="M 2 42 L 215.921875 42 L 215.921875 231 L 2 231 Z M 2 42 " clip-rule="nonzero"/></clipPath><clipPath id="774bb3832d"><rect x="0" width="216" y="0" height="304"/></clipPath></defs><g transform="matrix(1, 0, 0, 1, 0, 7)"><g clip-path="url(#2ed8ddad60)"><g fill="#004aad" fill-opacity="1"><g transform="translate(11.268076, 220.675997)"><g><path d="M 252.328125 -65.40625 C 253.441406 -67.15625 254.710938 -67.75 256.140625 -67.1875 C 257.578125 -66.632812 258.929688 -65.601562 260.203125 -64.09375 C 261.472656 -62.582031 262.425781 -61.03125 263.0625 -59.4375 C 261.476562 -56.894531 259.570312 -53.195312 257.34375 -48.34375 C 255.113281 -43.488281 252.445312 -38.316406 249.34375 -32.828125 C 246.238281 -27.335938 242.613281 -22.082031 238.46875 -17.0625 C 234.332031 -12.050781 229.675781 -7.953125 224.5 -4.765625 C 219.332031 -1.585938 213.488281 0 206.96875 0 C 198.21875 0 191.570312 -3.101562 187.03125 -9.3125 C 182.5 -15.519531 180.234375 -24.035156 180.234375 -34.859375 C 180.234375 -41.703125 181.066406 -48.382812 182.734375 -54.90625 C 184.410156 -61.425781 186.363281 -67.550781 188.59375 -73.28125 C 190.820312 -79.007812 192.769531 -84.019531 194.4375 -88.3125 C 196.101562 -92.613281 196.9375 -95.960938 196.9375 -98.359375 C 196.9375 -101.859375 195.425781 -103.609375 192.40625 -103.609375 C 190.332031 -103.609375 188.257812 -102.613281 186.1875 -100.625 C 184.125 -98.632812 181.898438 -95.050781 179.515625 -89.875 C 177.128906 -84.707031 174.421875 -77.390625 171.390625 -67.921875 C 168.367188 -58.453125 164.953125 -46.15625 161.140625 -31.03125 C 159.066406 -22.757812 156.078125 -17.425781 152.171875 -15.03125 C 148.273438 -12.644531 144.335938 -11.453125 140.359375 -11.453125 C 132.878906 -11.453125 127.867188 -12.722656 125.328125 -15.265625 C 122.785156 -17.816406 121.515625 -21.5625 121.515625 -26.5 C 121.515625 -30.957031 122.226562 -35.847656 123.65625 -41.171875 C 125.09375 -46.503906 126.6875 -52.113281 128.4375 -58 C 130.1875 -63.894531 131.773438 -69.828125 133.203125 -75.796875 C 134.640625 -81.765625 135.359375 -87.453125 135.359375 -92.859375 C 135.359375 -97.472656 134.800781 -100.535156 133.6875 -102.046875 C 132.570312 -103.554688 131.21875 -104.3125 129.625 -104.3125 C 126.125 -104.3125 123.894531 -102.085938 122.9375 -97.640625 C 117.6875 -71.859375 110.40625 -51.046875 101.09375 -35.203125 C 91.78125 -19.367188 81.113281 -7.867188 69.09375 -0.703125 C 57.082031 6.453125 44.316406 10.03125 30.796875 10.03125 C 21.566406 10.03125 13.882812 8.078125 7.75 4.171875 C 1.625 0.273438 -2.945312 -4.773438 -5.96875 -10.984375 C -8.988281 -17.191406 -10.5 -23.554688 -10.5 -30.078125 C -10.5 -36.597656 -9.1875 -42.84375 -6.5625 -48.8125 C -3.9375 -54.78125 -0.238281 -59.632812 4.53125 -63.375 C 9.3125 -67.113281 14.882812 -68.984375 21.25 -68.984375 C 23.632812 -68.984375 24.828125 -68.03125 24.828125 -66.125 C 24.828125 -60.875 27.132812 -56.613281 31.75 -53.34375 C 36.363281 -50.082031 42.09375 -48.453125 48.9375 -48.453125 C 55.625 -48.453125 61.910156 -50.082031 67.796875 -53.34375 C 73.679688 -56.613281 79.007812 -60.875 83.78125 -66.125 C 88.5625 -71.375 92.703125 -77.179688 96.203125 -83.546875 C 99.703125 -89.910156 102.367188 -96.273438 104.203125 -102.640625 C 106.035156 -109.015625 106.953125 -114.75 106.953125 -119.84375 C 106.953125 -126.207031 105.476562 -131.054688 102.53125 -134.390625 C 99.582031 -137.734375 95.5625 -139.40625 90.46875 -139.40625 C 84.738281 -139.40625 79.644531 -137.296875 75.1875 -133.078125 C 70.738281 -128.867188 68.515625 -123.023438 68.515625 -115.546875 C 68.515625 -111.398438 69.664062 -107.894531 71.96875 -105.03125 C 74.28125 -102.164062 77.1875 -100.734375 80.6875 -100.734375 C 82.113281 -97.554688 81.875 -93.695312 79.96875 -89.15625 C 78.0625 -84.625 74.757812 -80.644531 70.0625 -77.21875 C 65.363281 -73.800781 59.4375 -72.09375 52.28125 -72.09375 C 42.882812 -72.09375 35.082031 -75.515625 28.875 -82.359375 C 22.675781 -89.203125 19.578125 -98.191406 19.578125 -109.328125 C 19.578125 -118.398438 21.40625 -127.035156 25.0625 -135.234375 C 28.726562 -143.429688 34.019531 -150.710938 40.9375 -157.078125 C 47.863281 -163.441406 56.179688 -168.453125 65.890625 -172.109375 C 75.597656 -175.773438 86.421875 -177.609375 98.359375 -177.609375 C 119.203125 -177.609375 135.3125 -171.71875 146.6875 -159.9375 C 158.070312 -148.164062 164.796875 -132.332031 166.859375 -112.4375 C 170.835938 -120.707031 175.570312 -128.742188 181.0625 -136.546875 C 186.550781 -144.347656 192.519531 -151.3125 198.96875 -157.4375 C 205.414062 -163.5625 212.0625 -168.453125 218.90625 -172.109375 C 225.75 -175.773438 232.515625 -177.609375 239.203125 -177.609375 C 248.429688 -177.609375 254.953125 -175.140625 258.765625 -170.203125 C 262.585938 -165.273438 264.5 -159.546875 264.5 -153.015625 C 264.5 -148.242188 263.625 -143.550781 261.875 -138.9375 C 260.125 -134.320312 257.894531 -130.5 255.1875 -127.46875 C 252.476562 -124.445312 249.691406 -122.9375 246.828125 -122.9375 C 245.078125 -122.9375 243.566406 -123.375 242.296875 -124.25 C 241.023438 -125.125 239.59375 -125.5625 238 -125.5625 C 235.613281 -125.5625 233.382812 -124.128906 231.3125 -121.265625 C 229.25 -118.398438 227.421875 -114.695312 225.828125 -110.15625 C 224.234375 -105.625 222.878906 -100.8125 221.765625 -95.71875 C 220.648438 -90.632812 219.773438 -85.78125 219.140625 -81.15625 C 218.503906 -76.539062 218.1875 -72.800781 218.1875 -69.9375 C 218.1875 -65.007812 219.257812 -60.992188 221.40625 -57.890625 C 223.5625 -54.785156 227.34375 -53.234375 232.75 -53.234375 C 240.382812 -53.234375 246.910156 -57.289062 252.328125 -65.40625 Z M 252.328125 -65.40625 "/></g></g></g></g></g><g transform="matrix(1, 0, 0, 1, 158, 71)"><g clip-path="url(#774bb3832d)"><g clip-path="url(#93173b8e79)"><g fill="#004aad" fill-opacity="1"><g transform="translate(14.495463, 220.393122)"><g><path d="M 29.359375 10.03125 C 20.128906 10.03125 12.453125 8.078125 6.328125 4.171875 C 0.203125 0.273438 -4.367188 -4.773438 -7.390625 -10.984375 C -10.421875 -17.191406 -11.9375 -23.554688 -11.9375 -30.078125 C -11.9375 -36.597656 -10.625 -42.84375 -8 -48.8125 C -5.375 -54.78125 -1.675781 -59.632812 3.09375 -63.375 C 7.875 -67.113281 13.445312 -68.984375 19.8125 -68.984375 C 22.195312 -68.984375 23.390625 -68.03125 23.390625 -66.125 C 23.390625 -60.875 25.816406 -56.613281 30.671875 -53.34375 C 35.523438 -50.082031 41.054688 -48.453125 47.265625 -48.453125 C 52.671875 -48.453125 58.238281 -49.84375 63.96875 -52.625 C 69.707031 -55.414062 75.238281 -59.832031 80.5625 -65.875 C 85.894531 -71.925781 90.394531 -79.726562 94.0625 -89.28125 C 96.125 -94.6875 98.226562 -100.296875 100.375 -106.109375 C 102.53125 -111.921875 104.640625 -117.375 106.703125 -122.46875 C 108.296875 -126.601562 110.40625 -129.546875 113.03125 -131.296875 C 115.65625 -133.046875 118.71875 -133.921875 122.21875 -133.921875 C 127.3125 -133.921875 130.65625 -132.765625 132.25 -130.453125 C 133.84375 -128.148438 134.003906 -125.007812 132.734375 -121.03125 C 128.273438 -108.300781 129.863281 -101.9375 137.5 -101.9375 C 142.59375 -101.9375 147.328125 -103.925781 151.703125 -107.90625 C 156.078125 -111.882812 158.265625 -117.53125 158.265625 -124.84375 C 158.265625 -129.78125 156.671875 -133.757812 153.484375 -136.78125 C 150.304688 -139.8125 146.128906 -142.039062 140.953125 -143.46875 C 135.785156 -144.90625 130.019531 -145.625 123.65625 -145.625 C 114.425781 -145.625 105.910156 -144.46875 98.109375 -142.15625 C 90.316406 -139.851562 84.03125 -136.3125 79.25 -131.53125 C 74.476562 -126.757812 72.09375 -120.550781 72.09375 -112.90625 C 72.09375 -109.40625 72.96875 -106.5 74.71875 -104.1875 C 76.46875 -101.882812 78.617188 -100.734375 81.171875 -100.734375 C 82.273438 -98.191406 82.347656 -95.128906 81.390625 -91.546875 C 80.441406 -87.960938 78.570312 -84.539062 75.78125 -81.28125 C 73 -78.019531 69.421875 -75.273438 65.046875 -73.046875 C 60.671875 -70.816406 55.617188 -69.703125 49.890625 -69.703125 C 43.367188 -69.703125 37.878906 -71.171875 33.421875 -74.109375 C 28.960938 -77.054688 25.617188 -80.878906 23.390625 -85.578125 C 21.160156 -90.273438 20.046875 -95.328125 20.046875 -100.734375 C 20.046875 -111.078125 22.472656 -120.90625 27.328125 -130.21875 C 32.179688 -139.53125 39.144531 -147.726562 48.21875 -154.8125 C 57.289062 -161.894531 68.269531 -167.460938 81.15625 -171.515625 C 94.050781 -175.578125 108.613281 -177.609375 124.84375 -177.609375 C 142.195312 -177.609375 156.484375 -175.457031 167.703125 -171.15625 C 178.921875 -166.863281 187.273438 -161.175781 192.765625 -154.09375 C 198.253906 -147.007812 201 -139.25 201 -130.8125 C 201 -124.613281 199.6875 -118.765625 197.0625 -113.265625 C 194.4375 -107.773438 190.816406 -103.117188 186.203125 -99.296875 C 181.585938 -95.484375 176.253906 -93.019531 170.203125 -91.90625 C 168.296875 -91.425781 167.300781 -90.628906 167.21875 -89.515625 C 167.144531 -88.398438 167.425781 -87.445312 168.0625 -86.65625 C 171.238281 -83.632812 173.941406 -79.773438 176.171875 -75.078125 C 178.398438 -70.378906 179.515625 -64.289062 179.515625 -56.8125 C 179.515625 -44.875 176.925781 -34.445312 171.75 -25.53125 C 166.582031 -16.625 159.859375 -9.742188 151.578125 -4.890625 C 143.304688 -0.0351562 134.554688 2.390625 125.328125 2.390625 C 114.984375 2.390625 106.707031 -0.59375 100.5 -6.5625 C 94.289062 -12.53125 90.867188 -20.445312 90.234375 -30.3125 C 81.484375 -17.269531 71.972656 -7.285156 61.703125 -0.359375 C 51.441406 6.566406 40.660156 10.03125 29.359375 10.03125 Z M 127.46875 -49.421875 C 133.195312 -49.421875 137.65625 -51.804688 140.84375 -56.578125 C 144.03125 -61.347656 145.625 -66.519531 145.625 -72.09375 C 145.625 -75.4375 144.390625 -78.421875 141.921875 -81.046875 C 139.453125 -83.671875 135.515625 -84.90625 130.109375 -84.75 C 124.847656 -84.75 120.828125 -82.796875 118.046875 -78.890625 C 115.265625 -74.992188 113.875 -70.738281 113.875 -66.125 C 113.875 -61.820312 114.945312 -57.960938 117.09375 -54.546875 C 119.238281 -51.128906 122.695312 -49.421875 127.46875 -49.421875 Z M 127.46875 -49.421875 "/></g></g></g></g></g></g></svg>